<mxfile host="app.diagrams.net" modified="2020-10-25T07:26:31.493Z" agent="5.0 (Windows)" etag="cH-4gjhBh18gCxTz8nhb" version="13.8.1" type="github">
  <diagram id="68TREvA6BFFCCgDvRHD5" name="Page-1">
    <mxGraphModel dx="1422" dy="763" grid="1" gridSize="10" guides="1" tooltips="1" connect="1" arrows="1" fold="1" page="1" pageScale="1" pageWidth="850" pageHeight="1100" math="0" shadow="0">
      <root>
        <mxCell id="0" />
        <mxCell id="1" parent="0" />
        <mxCell id="RdyQYnXxG0MiQOvbN0wK-2" value="" style="rounded=1;whiteSpace=wrap;html=1;" vertex="1" parent="1">
          <mxGeometry x="108" y="200" width="290" height="280" as="geometry" />
        </mxCell>
        <mxCell id="RdyQYnXxG0MiQOvbN0wK-3" value="" style="rounded=1;whiteSpace=wrap;html=1;" vertex="1" parent="1">
          <mxGeometry x="453" y="200" width="290" height="280" as="geometry" />
        </mxCell>
        <mxCell id="RdyQYnXxG0MiQOvbN0wK-4" value="&lt;font style=&quot;font-size: 14px&quot;&gt;&lt;b&gt;Business Tier&lt;/b&gt;&lt;/font&gt;" style="text;html=1;strokeColor=none;fillColor=none;align=center;verticalAlign=middle;whiteSpace=wrap;rounded=0;" vertex="1" parent="1">
          <mxGeometry x="201.75" y="210" width="102.5" height="20" as="geometry" />
        </mxCell>
        <mxCell id="RdyQYnXxG0MiQOvbN0wK-5" value="&lt;font style=&quot;font-size: 14px&quot;&gt;&lt;b&gt;Web Tier&lt;/b&gt;&lt;/font&gt;" style="text;html=1;strokeColor=none;fillColor=none;align=center;verticalAlign=middle;whiteSpace=wrap;rounded=0;" vertex="1" parent="1">
          <mxGeometry x="546.75" y="210" width="102.5" height="20" as="geometry" />
        </mxCell>
      </root>
    </mxGraphModel>
  </diagram>
</mxfile>
